<svg id="Layer_1" enable-background="new 0 0 64 64" viewBox="0 0 64 64" xmlns="http://www.w3.org/2000/svg"><g><path d="m42.7070312 22.2929688c-.390625-.390625-1.0234375-.390625-1.4140625 0l-4 4c-.390625.390625-.390625 1.0234375 0 1.4140625l4 4c.1953125.1953125.4511719.2929687.7070313.2929687s.5117188-.0976562.7070312-.2929688c.390625-.390625.390625-1.0234375 0-1.4140625l-3.2929687-3.2929687 3.2929688-3.2929688c.3906249-.390625.3906249-1.0234374-.0000001-1.4140624z"/><path d="m49.2929688 31.7070312c.1953124.1953126.4511718.2929688.7070312.2929688s.5117188-.0976562.7070312-.2929688l4-4c.390625-.390625.390625-1.0234375 0-1.4140625l-4-4c-.390625-.390625-1.0234375-.390625-1.4140625 0s-.390625 1.0234375 0 1.4140625l3.2929688 3.2929688-3.2929688 3.2929688c-.3906249.390625-.3906249 1.0234374.0000001 1.4140624z"/><path d="m44.9990234 30c.3671875 0 .7202148-.2021484.8955078-.5527344l2-4c.2470703-.4941406.046875-1.0947266-.4472656-1.3417969-.4941406-.2480469-1.0952148-.0463867-1.3417969.4472656l-2 4c-.2470703.4941406-.046875 1.0947266.4472656 1.3417969.1435548.0717774.2963868.1054688.4462891.1054688z"/><path d="m20.7998047 44.7998047v-5h5c1.2133789 0 2.2001953-.9873047 2.2001953-2.2001953v-7.199707c0-1.2128906-.9868164-2.199707-2.2001953-2.199707h-4.7998047c-.0685425 0-.1332397.0140991-.2001953.0202637v-5.0202637c0-1.213379-.9868164-2.2001954-2.199707-2.2001954h-7.2001953c-1.2128906 0-2.199707.9868164-2.199707 2.2001953v5h-5c-1.213379 0-2.2001954.9868164-2.2001954 2.199707v7.199707c0 1.2128906.9868164 2.2001953 2.2001953 2.2001953h4.7998047c.0685425 0 .1332397-.0140991.2001953-.0202637v5.0202637c0 1.2128907.9868164 2.2001954 2.199707 2.2001954h7.2001953c1.2128907 0 2.1997071-.9873047 2.1997071-2.2001953zm-11.7998047-7h-4.7998047c-.1103515 0-.2001953-.0898438-.2001953-.2001953v-7.199707c0-.1103516.0898438-.199707.2001953-.199707h10.7998047c.5522461 0 1-.4477539 1-1s-.4477539-1-1-1h-3.7998047v-5c0-.1103516.0893555-.2001954.199707-.2001954h7.2001953c.1103516 0 .199707.0898438.199707.2001953v6c0 .173584.0559082.3287354.133728.4710083-.0811768.229248-.133728.4720459-.133728.7286987v2.3999023c.0000001.1103516-.0893554.2001954-.1997069.2001954h-7.2001953c-1.2128906 0-2.199707.9873047-2.199707 2.2001953v2.3994141c-.0000001.1103515-.0898438.2001953-.2001954.2001953zm2.2001953 7v-6c0-.1737671-.0559692-.3290405-.1337891-.4713135.0812378-.2293091.1337891-.472168.1337891-.7288818v-2.3994141c0-.1103515.0893555-.2001953.199707-.2001953h7.2001953c1.2128906 0 2.199707-.9873047 2.199707-2.2001953v-2.3999023c0-.1103516.0898438-.199707.2001953-.199707h4.7998047c.1103516-.0000001.2001954.0893554.2001954.1997069v7.199707c0 .1103516-.0898438.2001953-.2001953.2001953h-10.7998047c-.5522461 0-1 .4472656-1 1s.4477539 1 1 1h3.7998047v5c0 .1103516-.0893555.2001954-.199707.2001954h-7.2001953c-.1103516 0-.1997071-.0898438-.1997071-.2001953z"/><path d="m59 9h-44c-1.6542969 0-3 1.3457031-3 3v6c0 .5522461.4477539 1 1 1h47v33c0 .5517578-.4487305 1-1 1h-44c-.5512695 0-1-.4482422-1-1v-2c0-.5527344-.4477539-1-1-1s-1 .4472656-1 1v2c0 1.6542969 1.3457031 3 3 3h44c1.6542969 0 3-1.3457031 3-3v-40c0-1.6542969-1.3457031-3-3-3zm-45 8v-5c0-.5512695.4487305-1 1-1h44c.5512695 0 1 .4487305 1 1v5z"/><path d="m17.7099609 13.2900391c-.1000976-.0903321-.2099609-.1601563-.3300781-.2104493-.3598633-.159668-.8100586-.0698242-1.0898438.2104492-.090332.0996094-.1601562.209961-.2104492.3295899-.0498046.1201172-.0795898.25-.0795898.3803711 0 .1298828.0297852.2597656.0795898.3798828.050293.1201172.1201172.2299805.2104492.3300781.0996094.0898438.2099609.159668.3295898.2099609.1201173.0498048.2500001.0800782.3803712.0800782.1298828 0 .2597656-.0302734.3798828-.0800781.1298828-.050293.2299805-.1201172.3300781-.2099609.0898438-.1000977.159668-.2099609.2099609-.3300781.0600587-.1201173.0800782-.2500001.0800782-.3798829 0-.1303711-.0200195-.2602539-.0800781-.3803711-.050293-.1196289-.1201172-.2299805-.209961-.3295898z"/><path d="m21.3798828 13.0795898c-.1801758-.0795898-.3798828-.0996093-.5800781-.0595703-.0600586.0097656-.1201172.0297852-.1801758.0595703-.0595703.0200195-.1196289.050293-.1796875.090332-.050293.0400391-.1000977.0800781-.1499023.1201172-.0903321.0996094-.1601563.209961-.2104493.3295899-.0498046.1201172-.0795898.25-.0795898.3803711 0 .1298828.0297852.2597656.0795898.3798828.050293.1201172.1201172.2299805.2104492.3300781.0498047.0400391.0996094.0898438.1499023.1196289.0600586.0400391.1201172.0703125.1796875.090332.0600586.0297852.1201172.0498047.1801758.0600586.0698243.0097657.1298829.0200196.2001954.0200196.1298828 0 .2597656-.0302734.3798828-.0800781.1298828-.050293.2299805-.1201172.3300781-.2099609.1796875-.1899415.2900391-.4501954.2900391-.709961 0-.2602539-.1103516-.5200195-.2900391-.7099609-.1000976-.0903321-.2001953-.1601563-.3300781-.2104493z"/><path d="m25.7099609 13.2900391c-.1000977-.090332-.2001953-.1601562-.3300781-.2104492-.1801758-.0795899-.3798828-.0996094-.5800781-.0595704-.0600586.0097656-.1201172.0297852-.1801758.0595703-.0595703.0200195-.1196289.050293-.1796875.090332-.050293.0400391-.1000977.0800781-.1499023.1201172-.0903321.0996094-.1601563.209961-.2104493.3295899-.0498046.1201172-.0795898.25-.0795898.3803711 0 .1298828.0297852.2597656.0795898.3798828.050293.1201172.1201172.2299805.2104492.3300781.0498047.0400391.0996094.0898438.1499023.1196289.0600586.0400391.1201172.0703125.1796875.090332.0600586.0297852.1201172.0498047.1801758.0600586.0698243.0097657.1298829.0200196.2001954.0200196.1298828 0 .2597656-.0302734.3798828-.0800781.1298828-.050293.2299805-.1201172.3300781-.2099609.1796875-.1899415.2900391-.4501954.2900391-.709961 0-.1303711-.0302734-.2602539-.0800781-.3803711-.050293-.1196289-.1201172-.2299805-.209961-.3295898z"/><path d="m37 44h17c.5522461 0 1-.4472656 1-1s-.4477539-1-1-1h-17c-.5522461 0-1 .4472656-1 1s.4477539 1 1 1z"/><path d="m54 48h-10c-.5522461 0-1 .4472656-1 1s.4477539 1 1 1h10c.5522461 0 1-.4472656 1-1s-.4477539-1-1-1z"/><path d="m37 50h3c.5522461 0 1-.4472656 1-1s-.4477539-1-1-1h-3c-.5522461 0-1 .4472656-1 1s.4477539 1 1 1z"/><path d="m36 37c0 .5527344.4477539 1 1 1h10c.5522461 0 1-.4472656 1-1s-.4477539-1-1-1h-10c-.5522461 0-1 .4472656-1 1z"/><path d="m51 36c-.5522461 0-1 .4472656-1 1s.4477539 1 1 1h3c.5522461 0 1-.4472656 1-1s-.4477539-1-1-1z"/></g></svg>