<svg height="512" viewBox="0 0 64 64" width="512" xmlns="http://www.w3.org/2000/svg"><g id="Icons"><g><g><g><g><path d="m.5 8.131h63v47.737h-63z" fill="#fff"/></g><g><path d="m63 8.631v46.738h-62v-46.738zm1-1h-64v48.738h64z" fill="#aac1ce"/></g></g><g><path d="m.375 15.856h63.227v1h-63.227z" fill="#aac1ce"/></g></g><g><g><circle cx="6.008" cy="12.312" fill="#e04f5f" r="1.573"/></g><g><circle cx="11.164" cy="12.312" fill="#25b6d2" r="1.573"/></g><g><circle cx="16.321" cy="12.312" fill="#32bea6" r="1.573"/></g></g></g><g><path d="m14.107 30.943c.527-.096 1.26-.168 2.255-.168 1.079 0 1.871.228 2.387.66.479.396.791 1.031.791 1.786 0 .768-.239 1.403-.695 1.835-.588.588-1.511.864-2.555.864-.275 0-.527-.013-.72-.048v3.046h-1.463zm1.463 3.765c.18.048.42.061.72.061 1.104 0 1.775-.54 1.775-1.487 0-.899-.624-1.38-1.644-1.38-.407 0-.695.036-.852.072v2.734z"/><path d="m21.751 33.077 1.056 3.13c.12.36.24.804.324 1.14h.035c.097-.336.204-.768.312-1.151l.911-3.118h1.583l-1.463 3.981c-.804 2.184-1.344 3.154-2.039 3.754-.575.517-1.175.708-1.547.756l-.336-1.247c.252-.061.563-.192.863-.408.276-.18.6-.527.804-.923.06-.108.096-.192.096-.265 0-.06-.012-.144-.084-.287l-2.135-5.361h1.62z"/><path d="m28.519 31.41v1.667h1.403v1.104h-1.403v2.578c0 .708.192 1.08.756 1.08.252 0 .443-.036.575-.072l.024 1.127c-.216.084-.6.145-1.067.145-.54 0-.995-.18-1.271-.479-.312-.336-.456-.864-.456-1.632v-2.746h-.84v-1.104h.839v-1.319z"/><path d="m31.04 30.403h1.486v3.479h.024c.18-.276.42-.504.731-.672.288-.168.636-.264 1.008-.264.995 0 2.039.659 2.039 2.53v3.442h-1.476v-3.274c0-.852-.312-1.487-1.127-1.487-.576 0-.984.384-1.14.828-.048.12-.061.275-.061.443v3.49h-1.484z"/><path d="m43.457 35.944c0 2.147-1.512 3.106-2.999 3.106-1.654 0-2.926-1.14-2.926-3.01 0-1.92 1.259-3.095 3.022-3.095 1.739.001 2.903 1.224 2.903 2.999zm-4.401.06c0 1.127.552 1.979 1.451 1.979.839 0 1.427-.827 1.427-2.003 0-.911-.408-1.955-1.415-1.955-1.044 0-1.463 1.008-1.463 1.979z"/><path d="m44.672 34.817c0-.672-.013-1.235-.049-1.739h1.296l.071.876h.036c.252-.456.888-1.008 1.859-1.008 1.02 0 2.075.659 2.075 2.507v3.466h-1.476v-3.299c0-.84-.312-1.476-1.115-1.476-.588 0-.995.42-1.151.863-.048.132-.061.312-.061.48v3.43h-1.486v-4.1z"/></g></g></svg>