<svg fill="none" height="24" viewBox="0 0 24 24" width="24" xmlns="http://www.w3.org/2000/svg"><path d="m4 1c-1.65685 0-3 1.34315-3 3v16c0 1.6569 1.34315 3 3 3h16c1.6569 0 3-1.3431 3-3v-16c0-1.65685-1.3431-3-3-3z" fill="#3747d6"/><g fill="#90caea"><path d="m4 1c-1.65685 0-3 1.34315-3 3v2c0 .55228.44772 1 1 1h20c.5523 0 1-.44772 1-1v-2c0-1.65685-1.3431-3-3-3z"/><path clip-rule="evenodd" d="m12.5 10.5h-3v-2h4c.5523 0 1 .44772 1 1v3c0 .5523-.4477 1-1 1h-5v4h-2v-5c0-.5523.44772-1 1-1h5z" fill-rule="evenodd"/><path clip-rule="evenodd" d="m11.5 17.5h3v2h-4c-.55228 0-1-.4477-1-1v-3c0-.5523.44772-1 1-1h5v-4h2v5c0 .5523-.4477 1-1 1h-5z" fill-rule="evenodd"/></g></svg>