<svg id="Layer_1" height="512" viewBox="0 0 64 64" width="512" xmlns="http://www.w3.org/2000/svg"><clipPath id="SVGID_2_"><circle id="SVGID_1_" cx="32" cy="32" r="32"/></clipPath><g id="Browser_copy_2"><g><g><path d="m32 0c-17.673 0-32 14.327-32 32s14.327 32 32 32 32-14.327 32-32-14.327-32-32-32z" fill="#db2b42"/></g><g><g/></g><g><path d="m50.728 23.367v19.781c0 2.419-1.979 4.398-4.398 4.398h-28.702c-2.419 0-4.398-1.979-4.398-4.398v-19.781z" fill="#fff"/></g><g><path d="m50.75 23.367v-2.524c0-2.419-1.979-4.398-4.398-4.398h-28.702c-2.419 0-4.398 1.979-4.398 4.398v2.524z" fill="#161c27"/></g></g><g><circle cx="23.132" cy="19.906" fill="#e6e5e5" r=".983"/></g><g><path d="m44.7 19.631h2.227v.5h-2.227z" fill="#fff"/></g><g><path d="m46.273 21.382-.377-.329 1-1.147-1-1.148.377-.328 1.287 1.476z" fill="#fff"/></g><g><path d="m41.029 21.471h-12.519c-.861 0-1.565-.704-1.565-1.565 0-.861.704-1.565 1.565-1.565h12.519c.861 0 1.565.704 1.565 1.565-.001.861-.705 1.565-1.565 1.565z" fill="#fff"/></g><g><path d="m28.827 20.655-.345-1.409h.274l.134.64c.035.172.068.352.092.491h.004c.023-.148.062-.315.103-.493l.152-.638h.27l.141.648c.035.167.064.324.085.477h.005c.024-.155.059-.315.096-.487l.146-.638h.262l-.379 1.409h-.275l-.146-.663c-.036-.16-.061-.294-.077-.447h-.005c-.024.15-.052.287-.094.447l-.163.663z"/></g><g><path d="m30.662 20.655-.345-1.409h.274l.134.64c.035.172.068.352.092.491h.004c.023-.148.062-.315.103-.493l.152-.638h.27l.141.648c.035.167.064.324.085.477h.005c.024-.155.059-.315.096-.487l.146-.638h.262l-.379 1.409h-.275l-.146-.663c-.036-.16-.061-.294-.077-.447h-.005c-.024.15-.052.287-.094.447l-.163.663z"/></g><g><path d="m32.497 20.655-.345-1.409h.274l.134.64c.035.172.068.352.092.491h.004c.023-.148.062-.315.103-.493l.152-.638h.27l.141.648c.035.167.064.324.085.477h.005c.024-.155.059-.315.096-.487l.146-.638h.262l-.379 1.409h-.277l-.146-.663c-.036-.16-.061-.294-.077-.447h-.005c-.024.15-.052.287-.094.447l-.163.663z"/></g><g><path d="m33.91 20.512c0-.096.067-.165.159-.165.094 0 .159.067.159.165 0 .095-.063.166-.159.166-.094 0-.159-.071-.159-.166z"/></g><g fill="#db2b42"><path d="m17.211 31.924c.376-.063.904-.111 1.647-.111.752 0 1.287.144 1.647.432.344.271.575.72.575 1.247s-.176.976-.496 1.279c-.415.392-1.031.567-1.751.567-.159 0-.304-.008-.415-.023v1.927h-1.208v-5.318zm1.208 2.447c.104.023.231.031.407.031.647 0 1.048-.327 1.048-.879 0-.496-.344-.792-.951-.792-.248 0-.416.024-.504.048z"/><path d="m22.947 37.241v-2.207l-1.703-3.182h1.391l.552 1.295c.168.392.28.68.416 1.031h.016c.12-.336.248-.647.408-1.031l.544-1.295h1.367l-1.775 3.142v2.247z"/><path d="m27.563 32.876h-1.447v-1.023h4.142v1.023h-1.472v4.365h-1.223z"/><path d="m32.131 31.852v2.07h2.007v-2.07h1.216v5.389h-1.216v-2.255h-2.007v2.255h-1.224v-5.389z"/><path d="m41.353 34.491c0 1.767-1.071 2.838-2.646 2.838-1.6 0-2.534-1.207-2.534-2.742 0-1.615 1.031-2.822 2.622-2.822 1.655-.001 2.558 1.239 2.558 2.726zm-3.893.071c0 1.056.495 1.799 1.312 1.799.823 0 1.295-.783 1.295-1.831 0-.967-.464-1.799-1.304-1.799-.824 0-1.303.784-1.303 1.831z"/><path d="m42.156 37.241v-5.389h1.424l1.119 1.975c.32.567.64 1.239.88 1.847h.023c-.08-.711-.104-1.438-.104-2.246v-1.575h1.119v5.389h-1.279l-1.151-2.079c-.32-.575-.672-1.271-.936-1.902l-.023.008c.031.712.048 1.471.048 2.351v1.623h-1.12z"/></g><g><circle cx="17.513" cy="19.895" fill="#db2b42" r=".983"/></g><g><circle cx="20.315" cy="19.895" fill="#8ad5dd" r=".983"/></g></g></svg>